<svg width="59" height="59" viewBox="0 0 59 59" fill="none" xmlns="http://www.w3.org/2000/svg">
<path d="M44.7938 59H29.0891C28.6762 58.9977 28.2723 58.8794 27.9235 58.6585C27.5746 58.4376 27.2949 58.1231 27.1163 57.7509C26.9377 57.3786 26.8674 56.9637 26.9133 56.5534C26.9593 56.1431 27.1197 55.754 27.3762 55.4305C28.0669 54.5627 28.4408 53.4852 28.4359 52.3761C28.4136 51.0835 27.8845 49.8513 26.9624 48.9451C26.0404 48.0389 24.7993 47.531 23.5065 47.531C22.2137 47.531 20.9726 48.0389 20.0506 48.9451C19.1286 49.8513 18.5994 51.0835 18.5771 52.3761C18.5723 53.4852 18.9461 54.5627 19.6368 55.4305C19.8943 55.7551 20.0549 56.1459 20.1002 56.5578C20.1455 56.9696 20.0736 57.3859 19.8929 57.7588C19.7121 58.1317 19.4298 58.4459 19.0784 58.6655C18.727 58.8851 18.3207 59.001 17.9064 59H2.2016C1.6177 59 1.05772 58.768 0.644835 58.3552C0.231954 57.9423 0 57.3823 0 56.7984V36.5524C0 36.1436 0.113855 35.7428 0.328808 35.395C0.54376 35.0472 0.851318 34.7661 1.21702 34.5833C1.58272 34.4004 1.99211 34.323 2.39932 34.3597C2.80653 34.3965 3.19548 34.5458 3.52257 34.7912C4.2548 35.3416 5.1259 35.6771 6.03817 35.7601C6.95044 35.8431 7.8678 35.6703 8.68735 35.2611C9.50691 34.8519 10.1962 34.2225 10.678 33.4434C11.1599 32.6643 11.4151 31.7663 11.4151 30.8503C11.4151 29.9342 11.1599 29.0363 10.678 28.2572C10.1962 27.4781 9.50691 26.8487 8.68735 26.4395C7.8678 26.0302 6.95044 25.8574 6.03817 25.9404C5.1259 26.0235 4.2548 26.359 3.52257 26.9094C3.19548 27.1547 2.80653 27.3041 2.39932 27.3408C1.99211 27.3776 1.58272 27.3002 1.21702 27.1173C0.851318 26.9345 0.54376 26.6534 0.328808 26.3056C0.113855 25.9578 0 25.557 0 25.1481V14.2135C0 13.6296 0.231954 13.0696 0.644835 12.6567C1.05772 12.2439 1.6177 12.0119 2.2016 12.0119H14.5541C14.1366 10.6184 14.0506 9.1466 14.303 7.71396C14.5554 6.28132 15.1392 4.92751 16.0078 3.76058C16.8763 2.59365 18.0056 1.6459 19.3056 0.992966C20.6055 0.340035 22.0401 0 23.4948 0C24.9495 0 26.384 0.340035 27.684 0.992966C28.9839 1.6459 30.1132 2.59365 30.9818 3.76058C31.8504 4.92751 32.4342 6.28132 32.6866 7.71396C32.939 9.1466 32.853 10.6184 32.4355 12.0119H44.788C45.3719 12.0119 45.9318 12.2439 46.3447 12.6567C46.7576 13.0696 46.9896 13.6296 46.9896 14.2135V21.8736C48.3778 21.4801 49.8384 21.4139 51.2566 21.6801C52.6748 21.9463 54.012 22.5377 55.163 23.4079C56.3141 24.2781 57.2477 25.4033 57.8906 26.6951C58.5335 27.987 58.868 29.4103 58.868 30.8532C58.868 32.2962 58.5335 33.7195 57.8906 35.0113C57.2477 36.3032 56.3141 37.4284 55.163 38.2985C54.012 39.1687 52.6748 39.7601 51.2566 40.0263C49.8384 40.2926 48.3778 40.2263 46.9896 39.8328V56.7984C46.9896 57.3813 46.7584 57.9404 46.3468 58.3531C45.9352 58.7658 45.3767 58.9984 44.7938 59ZM32.5647 54.5968H42.5922V36.1738C42.5922 35.7488 42.7153 35.3329 42.9464 34.9762C43.1776 34.6196 43.5071 34.3375 43.895 34.164C44.283 33.9905 44.7129 33.933 45.1328 33.9985C45.5528 34.0639 45.9448 34.2495 46.2616 34.5328C46.9714 35.1658 47.8492 35.58 48.7891 35.7254C49.729 35.8708 50.691 35.7412 51.5589 35.3523C52.4268 34.9633 53.1637 34.3317 53.6808 33.5334C54.1978 32.7351 54.4729 31.8043 54.4729 30.8532C54.4729 29.9021 54.1978 28.9713 53.6808 28.1731C53.1637 27.3748 52.4268 26.7431 51.5589 26.3542C50.691 25.9652 49.729 25.8357 48.7891 25.981C47.8492 26.1264 46.9714 26.5406 46.2616 27.1736C45.9448 27.4569 45.5528 27.6425 45.1328 27.708C44.7129 27.7734 44.283 27.7159 43.895 27.5424C43.5071 27.3689 43.1776 27.0868 42.9464 26.7302C42.7153 26.3736 42.5922 25.9577 42.5922 25.5327V16.4151H28.6972C28.2676 16.415 27.8475 16.2893 27.4885 16.0534C27.1295 15.8175 26.8474 15.4818 26.6769 15.0875C26.5064 14.6933 26.4549 14.2577 26.5288 13.8346C26.6028 13.4115 26.7988 13.0192 27.0929 12.7061C27.7527 12.0054 28.193 11.1269 28.3594 10.1789C28.5259 9.23097 28.4112 8.25502 28.0296 7.37146C27.6479 6.48789 27.016 5.73536 26.2117 5.20667C25.4075 4.67798 24.4661 4.39627 23.5036 4.39627C22.5411 4.39627 21.5997 4.67798 20.7954 5.20667C19.9912 5.73536 19.3593 6.48789 18.9776 7.37146C18.596 8.25502 18.4813 9.23097 18.6477 10.1789C18.8142 11.1269 19.2544 12.0054 19.9142 12.7061C20.2083 13.0192 20.4044 13.4115 20.4783 13.8346C20.5523 14.2577 20.5008 14.6933 20.3303 15.0875C20.1597 15.4818 19.8776 15.8175 19.5187 16.0534C19.1597 16.2893 18.7395 16.415 18.31 16.4151H4.40908V21.7518C5.09306 21.5975 5.79209 21.5197 6.49326 21.5199C7.80656 21.5213 9.10477 21.7999 10.303 22.3374C11.5013 22.8749 12.5726 23.6592 13.447 24.6391C14.3214 25.619 14.9792 26.7724 15.3773 28.0239C15.7754 29.2754 15.9049 30.5968 15.7574 31.9018C15.6098 33.2068 15.1885 34.466 14.521 35.597C13.8535 36.728 12.9549 37.7054 11.8838 38.4653C10.8127 39.2253 9.59323 39.7506 8.3052 40.007C7.01718 40.2634 5.68954 40.245 4.40908 39.9532V54.5968H14.4366C14.0992 53.2225 14.0786 51.7895 14.3764 50.4062C14.6743 49.0228 15.2829 47.7252 16.156 46.6117C17.0292 45.4981 18.1442 44.5977 19.4166 43.9785C20.689 43.3593 22.0856 43.0375 23.5007 43.0375C24.9157 43.0375 26.3123 43.3593 27.5847 43.9785C28.8571 44.5977 29.9721 45.4981 30.8453 46.6117C31.7185 47.7252 32.327 49.0228 32.6249 50.4062C32.9227 51.7895 32.9021 53.2225 32.5647 54.5968Z" fill="#944B22"/>
</svg>
