<svg width="80" height="61" viewBox="0 0 80 61" fill="none" xmlns="http://www.w3.org/2000/svg">
<path fill-rule="evenodd" clip-rule="evenodd" d="M22.8569 54.7757C22.8569 54.0181 23.1578 53.2915 23.6936 52.7558C24.2293 52.22 24.9559 51.9191 25.7135 51.9191H77.1333C77.891 51.9191 78.6176 52.22 79.1533 52.7558C79.689 53.2915 79.99 54.0181 79.99 54.7757C79.99 55.5334 79.689 56.26 79.1533 56.7957C78.6176 57.3314 77.891 57.6324 77.1333 57.6324H25.7135C24.9559 57.6324 24.2293 57.3314 23.6936 56.7957C23.1578 56.26 22.8569 55.5334 22.8569 54.7757ZM22.8569 31.9225C22.8569 31.1648 23.1578 30.4382 23.6936 29.9025C24.2293 29.3668 24.9559 29.0658 25.7135 29.0658H77.1333C77.891 29.0658 78.6176 29.3668 79.1533 29.9025C79.689 30.4382 79.99 31.1648 79.99 31.9225C79.99 32.6801 79.689 33.4067 79.1533 33.9424C78.6176 34.4782 77.891 34.7791 77.1333 34.7791H25.7135C24.9559 34.7791 24.2293 34.4782 23.6936 33.9424C23.1578 33.4067 22.8569 32.6801 22.8569 31.9225ZM22.8569 9.06922C22.8569 8.31158 23.1578 7.58498 23.6936 7.04926C24.2293 6.51353 24.9559 6.21256 25.7135 6.21256H77.1333C77.891 6.21256 78.6176 6.51353 79.1533 7.04926C79.689 7.58498 79.99 8.31158 79.99 9.06922C79.99 9.82685 79.689 10.5535 79.1533 11.0892C78.6176 11.6249 77.891 11.9259 77.1333 11.9259H25.7135C24.9559 11.9259 24.2293 11.6249 23.6936 11.0892C23.1578 10.5535 22.8569 9.82685 22.8569 9.06922ZM16.3094 1.33339C16.5754 1.59875 16.7865 1.91398 16.9305 2.26104C17.0745 2.6081 17.1487 2.98015 17.1487 3.3559C17.1487 3.73165 17.0745 4.10371 16.9305 4.45077C16.7865 4.79782 16.5754 5.11306 16.3094 5.37842L7.73943 13.9484C7.47408 14.2144 7.15884 14.4255 6.81178 14.5695C6.46473 14.7135 6.09267 14.7876 5.71692 14.7876C5.34117 14.7876 4.96912 14.7135 4.62206 14.5695C4.275 14.4255 3.95977 14.2144 3.69441 13.9484L0.837753 11.0917C0.572152 10.8261 0.361466 10.5108 0.217725 10.1638C0.0739828 9.81677 3.95775e-09 9.44483 0 9.06922C-3.95775e-09 8.6936 0.0739828 8.32166 0.217725 7.97464C0.361466 7.62762 0.572152 7.3123 0.837753 7.0467C1.10335 6.7811 1.41867 6.57042 1.76569 6.42668C2.11271 6.28294 2.48465 6.20895 2.86027 6.20895C3.23588 6.20895 3.60782 6.28294 3.95484 6.42668C4.30186 6.57042 4.61718 6.7811 4.88278 7.0467L5.71692 7.88656L12.2644 1.33339C12.5297 1.06736 12.845 0.856295 13.192 0.712282C13.5391 0.56827 13.9111 0.494141 14.2869 0.494141C14.6626 0.494141 15.0347 0.56827 15.3818 0.712282C15.7288 0.856295 16.044 1.06736 16.3094 1.33339V1.33339ZM16.3094 24.1866C16.5754 24.452 16.7865 24.7672 16.9305 25.1143C17.0745 25.4614 17.1487 25.8334 17.1487 26.2092C17.1487 26.5849 17.0745 26.957 16.9305 27.304C16.7865 27.6511 16.5754 27.9663 16.3094 28.2317L7.73943 36.8016C7.47408 37.0677 7.15884 37.2787 6.81178 37.4227C6.46473 37.5668 6.09267 37.6409 5.71692 37.6409C5.34117 37.6409 4.96912 37.5668 4.62206 37.4227C4.275 37.2787 3.95977 37.0677 3.69441 36.8016L0.837753 33.945C0.301349 33.4086 0 32.6811 0 31.9225C0 31.1639 0.301349 30.4364 0.837753 29.9C1.37416 29.3636 2.10168 29.0622 2.86027 29.0622C3.61885 29.0622 4.34637 29.3636 4.88278 29.9L5.71692 30.7398L12.2644 24.1866C12.5297 23.9206 12.845 23.7095 13.192 23.5655C13.5391 23.4215 13.9111 23.3474 14.2869 23.3474C14.6626 23.3474 15.0347 23.4215 15.3818 23.5655C15.7288 23.7095 16.044 23.9206 16.3094 24.1866V24.1866ZM16.3094 47.0399C16.5754 47.3053 16.7865 47.6205 16.9305 47.9675C17.0745 48.3146 17.1487 48.6867 17.1487 49.0624C17.1487 49.4382 17.0745 49.8102 16.9305 50.1573C16.7865 50.5043 16.5754 50.8196 16.3094 51.0849L7.73943 59.6549C7.47408 59.9209 7.15884 60.132 6.81178 60.276C6.46473 60.42 6.09267 60.4941 5.71692 60.4941C5.34117 60.4941 4.96912 60.42 4.62206 60.276C4.275 60.132 3.95977 59.9209 3.69441 59.6549L0.837753 56.7982C0.301349 56.2618 0 55.5343 0 54.7757C0 54.0171 0.301349 53.2896 0.837753 52.7532C1.37416 52.2168 2.10168 51.9155 2.86027 51.9155C3.61885 51.9155 4.34637 52.2168 4.88278 52.7532L5.71692 53.5931L12.2644 47.0399C12.5297 46.7739 12.845 46.5628 13.192 46.4188C13.5391 46.2748 13.9111 46.2006 14.2869 46.2006C14.6626 46.2006 15.0347 46.2748 15.3818 46.4188C15.7288 46.5628 16.044 46.7739 16.3094 47.0399V47.0399Z" fill="#944B22"/>
</svg>
