<svg width="151" height="80" viewBox="0 0 151 80" fill="none" xmlns="http://www.w3.org/2000/svg">
<path fill-rule="evenodd" clip-rule="evenodd" d="M2.92002 56.3022C1.00945 51.1461 0 45.6411 0 40.0274C0 27.0749 5.3663 14.7005 14.82 5.84718C14.82 5.84718 14.82 5.84686 14.82 5.84655C21.1184 -0.0495694 30.3151 -1.64459 38.2299 1.78699C46.1415 5.21858 51.2632 13.0215 51.2632 21.6479C51.2632 33.6293 51.2632 46.4258 51.2632 58.4072C51.2632 62.3027 50.2197 66.0306 48.3463 69.2637V52.987H40.3665V77.1983C39.6791 77.5912 38.9668 77.9486 38.2299 78.2678C37.5146 78.5772 36.7931 78.8456 36.0623 79.0732V31.8305H28.0825V80C26.5187 79.8888 24.9736 79.6083 23.4717 79.1643V61.2344H15.492V74.8114C15.2659 74.6157 15.043 74.4148 14.82 74.2085C14.82 74.2082 14.82 74.2079 14.82 74.2076C13.4235 72.899 12.1136 71.5136 10.8998 70.0601V40.4845H2.92002V56.3022Z" fill="#944B22"/>
<path d="M78.3721 25.6577C77.5067 25.6577 76.7983 25.5085 76.2467 25.2113C75.695 24.9129 75.2569 24.5381 74.9325 24.0831C74.6079 23.6293 74.3835 23.1336 74.2591 22.5985C74.1347 22.0633 74.0725 21.5577 74.0725 21.0818V13.8782H75.2407V20.9523C75.2407 21.4172 75.2947 21.8685 75.4029 22.3062C75.5111 22.7452 75.6868 23.1336 75.9303 23.4752C76.1737 23.8155 76.4954 24.0917 76.8956 24.3026C77.2959 24.5134 77.788 24.6182 78.3721 24.6182C78.9562 24.6182 79.4483 24.5134 79.8486 24.3026C80.2488 24.0917 80.5706 23.8155 80.814 23.4752C81.0574 23.1336 81.2331 22.7452 81.3413 22.3062C81.4495 21.8685 81.5035 21.4172 81.5035 20.9523V13.8782H82.6717V21.0818C82.6717 21.5577 82.6096 22.0633 82.4851 22.5985C82.3607 23.1336 82.1363 23.6293 81.8119 24.0831C81.4873 24.5381 81.0465 24.9129 80.4895 25.2113C79.9324 25.5085 79.2266 25.6577 78.3721 25.6577ZM78.5344 12.9694H77.5771L79.1996 10.6327H80.6761L78.5344 12.9694Z" fill="#944B22"/>
<path d="M91.0601 19.5071C90.8761 19.2161 90.6084 18.9756 90.2569 18.7857C89.9053 18.5958 89.524 18.5021 89.1131 18.5021C88.6695 18.5021 88.2693 18.5798 87.9124 18.7364C87.5554 18.8943 87.2499 19.11 86.9956 19.3862C86.7415 19.6612 86.5468 19.9867 86.4115 20.3591C86.2764 20.7328 86.2087 21.136 86.2087 21.5688C86.2087 22.0004 86.2764 22.4011 86.4115 22.7686C86.5468 23.1372 86.7388 23.4591 86.9875 23.734C87.2363 24.0103 87.5392 24.226 87.8961 24.3839C88.2531 24.5405 88.6532 24.6182 89.0968 24.6182C89.5836 24.6182 89.9946 24.5269 90.3299 24.3432C90.6652 24.1582 90.9411 23.9215 91.1574 23.6292L91.9849 24.2458C91.6603 24.6453 91.2628 24.9647 90.7923 25.2026C90.3218 25.4406 89.7566 25.5602 89.0968 25.5602C88.4802 25.5602 87.9231 25.4591 87.4256 25.2594C86.9281 25.0596 86.5035 24.7809 86.152 24.4233C85.8004 24.067 85.5273 23.6453 85.3326 23.1582C85.1379 22.6711 85.0405 22.1422 85.0405 21.5688C85.0405 20.9954 85.1379 20.4652 85.3326 19.9781C85.5273 19.4911 85.8004 19.0693 86.152 18.713C86.5035 18.3554 86.9281 18.0767 87.4256 17.877C87.9231 17.6772 88.4802 17.5773 89.0968 17.5773C89.6052 17.5773 90.1217 17.6883 90.6463 17.909C91.1709 18.131 91.5955 18.459 91.9199 18.8906L91.0601 19.5071ZM89.7133 16.2135H88.4154L86.6468 13.8781H87.7177L89.0644 15.6303L90.411 13.8781H91.4819L89.7133 16.2135Z" fill="#944B22"/>
<path d="M99.4971 20.9842C99.4647 20.2703 99.2349 19.6784 98.8076 19.2074C98.3803 18.7364 97.7719 18.5021 96.9823 18.5021C96.6146 18.5021 96.2738 18.5699 95.9601 18.7043C95.6464 18.8399 95.3707 19.0237 95.1327 19.2567C94.8947 19.4885 94.7054 19.7536 94.5647 20.0508C94.4242 20.3492 94.343 20.66 94.3214 20.9842H99.4971ZM100.617 21.3406V21.5848C100.617 21.6711 100.611 21.7635 100.6 21.8597H94.3052C94.316 22.2395 94.3917 22.5959 94.5323 22.9313C94.673 23.2667 94.8677 23.5589 95.1164 23.8068C95.3652 24.0558 95.6572 24.2531 95.9926 24.3999C96.3279 24.5454 96.6903 24.6181 97.0797 24.6181C97.653 24.6181 98.1478 24.4862 98.5642 24.2211C98.9807 23.956 99.2971 23.6501 99.5134 23.3049L100.341 23.9535C99.8865 24.5269 99.3863 24.9375 98.84 25.1866C98.2938 25.4356 97.707 25.5602 97.0797 25.5602C96.5172 25.5602 95.9952 25.4591 95.5139 25.2593C95.0326 25.0595 94.6189 24.7809 94.2727 24.4233C93.9266 24.0669 93.6535 23.6452 93.4534 23.1582C93.2532 22.6711 93.1532 22.1421 93.1532 21.5687C93.1532 20.9953 93.2505 20.4651 93.4452 19.9781C93.6399 19.491 93.9103 19.0693 94.2565 18.7129C94.6026 18.3553 95.0083 18.0767 95.4734 17.8769C95.9385 17.6771 96.4415 17.5773 96.9823 17.5773C97.5772 17.5773 98.1018 17.6771 98.5562 17.8769C99.0104 18.0767 99.389 18.3479 99.6918 18.6883C99.9948 19.0286 100.225 19.4269 100.381 19.8806C100.538 20.3356 100.617 20.8215 100.617 21.3406Z" fill="#944B22"/>
<path d="M106.409 18.6971H104.267V23.1263C104.267 23.4075 104.294 23.6393 104.348 23.8242C104.403 24.008 104.481 24.151 104.584 24.2534C104.687 24.3569 104.808 24.4272 104.949 24.4642C105.089 24.5024 105.241 24.5209 105.403 24.5209C105.555 24.5209 105.714 24.5 105.882 24.4568C106.049 24.4137 106.209 24.3532 106.36 24.278L106.409 25.2349C106.214 25.3113 106.012 25.3681 105.801 25.4063C105.59 25.4433 105.36 25.463 105.111 25.463C104.906 25.463 104.689 25.4359 104.462 25.3816C104.235 25.3274 104.024 25.225 103.829 25.0733C103.635 24.9217 103.475 24.7158 103.351 24.4568C103.226 24.1966 103.164 23.8563 103.164 23.4346V18.6971H101.59V17.7723H103.164V15.6305H104.267V17.7723H106.409V18.6971Z" fill="#944B22"/>
<path d="M109.119 17.7721C109.14 17.9768 109.156 18.2049 109.167 18.4527C109.178 18.7018 109.183 18.9078 109.183 19.0693H109.216C109.432 18.6266 109.784 18.2666 110.27 17.9903C110.757 17.7141 111.271 17.5773 111.812 17.5773C112.775 17.5773 113.497 17.8633 113.978 18.4367C114.459 19.0101 114.7 19.7672 114.7 20.708V25.3653H113.597V21.163C113.597 20.7623 113.564 20.3998 113.499 20.0755C113.434 19.7512 113.323 19.4725 113.167 19.2394C113.01 19.0076 112.799 18.8264 112.534 18.6969C112.269 18.5662 111.936 18.5021 111.536 18.5021C111.244 18.5021 110.96 18.5613 110.684 18.6796C110.408 18.7992 110.162 18.9805 109.946 19.2234C109.73 19.4676 109.557 19.7758 109.427 20.1482C109.297 20.5218 109.232 20.962 109.232 21.4713V25.3653H108.129V19.4429C108.129 19.237 108.123 18.9719 108.113 18.6476C108.102 18.3233 108.085 18.031 108.064 17.7721H109.119Z" fill="#944B22"/>
<path d="M118.675 25.3656H117.572V17.7723H118.675V25.3656ZM118.902 14.8512C118.902 15.0781 118.821 15.2655 118.659 15.411C118.497 15.5565 118.318 15.6305 118.123 15.6305C117.929 15.6305 117.75 15.5565 117.588 15.411C117.426 15.2655 117.345 15.0781 117.345 14.8512C117.345 14.6243 117.426 14.4381 117.588 14.2914C117.75 14.1459 117.929 14.0731 118.123 14.0731C118.318 14.0731 118.497 14.1459 118.659 14.2914C118.821 14.4381 118.902 14.6243 118.902 14.8512Z" fill="#944B22"/>
<path d="M127.08 19.507C126.896 19.216 126.628 18.9756 126.277 18.7857C125.925 18.5958 125.544 18.5021 125.133 18.5021C124.689 18.5021 124.289 18.5798 123.932 18.7364C123.575 18.8942 123.27 19.11 123.015 19.3862C122.761 19.6612 122.567 19.9867 122.431 20.3591C122.296 20.7327 122.228 21.1359 122.228 21.5687C122.228 22.0003 122.296 22.401 122.431 22.7685C122.567 23.1372 122.759 23.459 123.007 23.734C123.256 24.0102 123.559 24.226 123.916 24.3838C124.273 24.5404 124.673 24.6181 125.117 24.6181C125.603 24.6181 126.014 24.5269 126.35 24.3431C126.685 24.1582 126.961 23.9214 127.177 23.6292L128.005 24.2457C127.68 24.6452 127.283 24.9646 126.812 25.2026C126.341 25.4406 125.776 25.5602 125.117 25.5602C124.5 25.5602 123.943 25.4591 123.445 25.2593C122.948 25.0595 122.523 24.7809 122.172 24.4233C121.82 24.0669 121.547 23.6452 121.352 23.1582C121.158 22.6711 121.06 22.1421 121.06 21.5687C121.06 20.9953 121.158 20.4651 121.352 19.9781C121.547 19.491 121.82 19.0693 122.172 18.7129C122.523 18.3553 122.948 18.0767 123.445 17.8769C123.943 17.6771 124.5 17.5773 125.117 17.5773C125.625 17.5773 126.141 17.6882 126.666 17.909C127.191 18.1309 127.615 18.4589 127.94 18.8905L127.08 19.507Z" fill="#944B22"/>
<path d="M133.148 18.6971H131.006V23.1263C131.006 23.4075 131.033 23.6393 131.087 23.8242C131.141 24.008 131.22 24.151 131.323 24.2534C131.425 24.3569 131.547 24.4272 131.688 24.4642C131.828 24.5024 131.98 24.5209 132.142 24.5209C132.293 24.5209 132.453 24.5 132.621 24.4568C132.788 24.4137 132.948 24.3532 133.099 24.278L133.148 25.2349C132.953 25.3113 132.75 25.3681 132.539 25.4063C132.329 25.4433 132.099 25.463 131.85 25.463C131.644 25.463 131.428 25.4359 131.201 25.3816C130.974 25.3274 130.763 25.225 130.568 25.0733C130.373 24.9217 130.214 24.7158 130.089 24.4568C129.965 24.1966 129.903 23.8563 129.903 23.4346V18.6971H128.329V17.7723H129.903V15.6305H131.006V17.7723H133.148V18.6971Z" fill="#944B22"/>
<path d="M137.983 25.3655H136.766L133.667 17.7723H134.9L137.367 24.1966H137.399L139.881 17.7723H141.066L137.983 25.3655Z" fill="#944B22"/>
<path d="M143.905 25.3654H142.802V17.7721H143.905V25.3654ZM143.759 16.2135H142.802L144.424 13.8781H145.901L143.759 16.2135Z" fill="#944B22"/>
<path d="M79.8161 45.2895H79.8322L83.6777 35.7813H85.4624V47.2686H84.2942V37.2906H84.2617L80.1081 47.2686H79.4915L75.3379 37.2906H75.3055V47.2686H74.1373V35.7813H75.922L79.8161 45.2895Z" fill="#944B22"/>
<path d="M93.2344 42.3683C93.2344 41.7086 93.0613 41.2166 92.7151 40.8923C92.369 40.568 91.866 40.4052 91.2062 40.4052C90.7518 40.4052 90.33 40.4866 89.9406 40.6494C89.5512 40.8109 89.2213 41.0279 88.9509 41.298L88.3344 40.568C88.6481 40.2536 89.0618 39.9946 89.5756 39.7887C90.0893 39.584 90.6708 39.4804 91.3198 39.4804C91.7308 39.4804 92.1147 39.5372 92.4717 39.6506C92.8287 39.764 93.1424 39.9354 93.4128 40.1623C93.6832 40.3892 93.8942 40.6765 94.0456 41.0218C94.197 41.3683 94.2727 41.774 94.2727 42.2388V45.5656C94.2727 45.8566 94.2836 46.16 94.3052 46.4732C94.3268 46.7876 94.3593 47.0527 94.4025 47.2685H93.4128C93.3804 47.0848 93.3532 46.885 93.3317 46.668C93.3101 46.4522 93.2992 46.2414 93.2992 46.0354H93.2668C92.9207 46.5435 92.5286 46.9085 92.0905 47.1304C91.6523 47.3524 91.1251 47.4633 90.5085 47.4633C90.2164 47.4633 89.9163 47.4227 89.608 47.3413C89.2998 47.2611 89.0185 47.1279 88.7644 46.9442C88.5101 46.7605 88.2993 46.5225 88.1316 46.2303C87.9639 45.938 87.88 45.5817 87.88 45.16C87.88 44.5755 88.0288 44.1131 88.3263 43.7728C88.6237 43.4312 89.0212 43.1772 89.5188 43.0095C90.0163 42.8418 90.587 42.7333 91.2305 42.6852C91.8742 42.6371 92.542 42.6124 93.2344 42.6124V42.3683ZM92.9098 43.4719C92.4556 43.4719 91.9985 43.4904 91.5388 43.5286C91.0791 43.5668 90.6627 43.642 90.2894 43.7555C89.9163 43.8702 89.6107 44.0342 89.3728 44.2512C89.1348 44.467 89.0158 44.7543 89.0158 45.1106C89.0158 45.3807 89.0672 45.6088 89.1699 45.7925C89.2728 45.9763 89.4106 46.1255 89.5837 46.2389C89.7567 46.3523 89.9487 46.4337 90.1597 46.4818C90.3706 46.5311 90.5843 46.5546 90.8005 46.5546C91.1899 46.5546 91.5361 46.4867 91.8389 46.3523C92.1419 46.2167 92.396 46.033 92.6016 45.7999C92.8071 45.5681 92.964 45.3005 93.0721 44.9972C93.1802 44.6939 93.2344 44.3757 93.2344 44.0403V43.4719H92.9098Z" fill="#944B22"/>
<path d="M97.1121 41.3461C97.1121 41.1414 97.1066 40.8763 97.0958 40.552C97.0849 40.2264 97.0688 39.9354 97.0471 39.6753H98.1017C98.1234 39.8812 98.1396 40.1081 98.1504 40.3572C98.1613 40.6062 98.1667 40.8109 98.1667 40.9737H98.1991C98.4154 40.5298 98.74 40.1697 99.1727 39.8947C99.6053 39.6185 100.092 39.4804 100.633 39.4804C100.774 39.4804 100.901 39.4866 101.014 39.4965C101.128 39.5076 101.244 39.5298 101.363 39.5618L101.217 40.6001C101.152 40.5791 101.044 40.5569 100.892 40.5347C100.741 40.5137 100.59 40.5026 100.438 40.5026C100.146 40.5026 99.8649 40.5569 99.5945 40.6654C99.3241 40.7727 99.0888 40.9441 98.8887 41.1759C98.6886 41.409 98.5263 41.7061 98.402 42.0687C98.2776 42.4312 98.2153 42.8664 98.2153 43.3745V47.2685H97.1121V41.3461Z" fill="#944B22"/>
<path d="M108.129 41.4114C107.945 41.1192 107.677 40.8787 107.326 40.6888C106.974 40.5002 106.593 40.4052 106.182 40.4052C105.738 40.4052 105.338 40.4841 104.981 40.6407C104.624 40.7973 104.319 41.0144 104.064 41.2893C103.81 41.5656 103.615 41.8899 103.48 42.2635C103.345 42.6371 103.277 43.0391 103.277 43.4719C103.277 43.9047 103.345 44.3054 103.48 44.6729C103.615 45.0404 103.807 45.3622 104.056 45.6384C104.305 45.9146 104.608 46.1304 104.965 46.287C105.322 46.4436 105.722 46.5225 106.166 46.5225C106.652 46.5225 107.063 46.43 107.399 46.2463C107.734 46.0626 108.01 45.8246 108.226 45.5323L109.054 46.1489C108.729 46.5496 108.332 46.869 107.861 47.107C107.39 47.345 106.825 47.4633 106.166 47.4633C105.549 47.4633 104.992 47.3635 104.494 47.1637C103.997 46.9627 103.572 46.6853 103.221 46.3277C102.869 45.9713 102.596 45.5484 102.401 45.0626C102.207 44.5755 102.109 44.0453 102.109 43.4719C102.109 42.8985 102.207 42.3683 102.401 41.8825C102.596 41.3954 102.869 40.9737 103.221 40.6161C103.572 40.2597 103.997 39.9811 104.494 39.7813C104.992 39.5803 105.549 39.4804 106.166 39.4804C106.674 39.4804 107.19 39.5914 107.715 39.8134C108.24 40.0353 108.664 40.3621 108.989 40.7949L108.129 41.4114Z" fill="#944B22"/>
<path d="M116.566 42.8887C116.533 42.1747 116.304 41.5816 115.876 41.1118C115.449 40.6408 114.841 40.4052 114.051 40.4052C113.683 40.4052 113.343 40.4731 113.029 40.6087C112.715 40.7431 112.439 40.9268 112.201 41.1599C111.963 41.3929 111.774 41.658 111.633 41.9552C111.493 42.2524 111.412 42.5631 111.39 42.8887H116.566ZM117.685 43.245V43.4879C117.685 43.5755 117.68 43.6667 117.669 43.7641H111.374C111.385 44.1427 111.46 44.5003 111.601 44.8344C111.742 45.1698 111.936 45.4621 112.185 45.7111C112.434 45.9602 112.726 46.1575 113.061 46.303C113.397 46.4498 113.759 46.5225 114.148 46.5225C114.722 46.5225 115.217 46.3893 115.633 46.1255C116.049 45.8604 116.366 45.5545 116.582 45.2081L117.41 45.8566C116.955 46.43 116.455 46.8419 115.909 47.0897C115.363 47.3388 114.776 47.4633 114.148 47.4633C113.586 47.4633 113.064 47.3635 112.583 47.1637C112.101 46.9627 111.688 46.6853 111.341 46.3277C110.995 45.9713 110.722 45.5484 110.522 45.0626C110.322 44.5755 110.222 44.0453 110.222 43.4719C110.222 42.8985 110.319 42.3683 110.514 41.8825C110.709 41.3954 110.979 40.9737 111.325 40.6161C111.671 40.2597 112.077 39.9811 112.542 39.7813C113.007 39.5803 113.51 39.4804 114.051 39.4804C114.646 39.4804 115.171 39.5803 115.625 39.7813C116.079 39.9811 116.458 40.2511 116.761 40.5927C117.063 40.933 117.293 41.33 117.45 41.785C117.607 42.2388 117.685 42.7259 117.685 43.245Z" fill="#944B22"/>
<path d="M121.19 35.0031H120.087V47.2692H121.19V35.0031Z" fill="#944B22"/>
<path d="M128.929 42.3683C128.929 41.7086 128.756 41.2166 128.41 40.8923C128.064 40.568 127.561 40.4052 126.901 40.4052C126.447 40.4052 126.025 40.4866 125.636 40.6494C125.246 40.8109 124.916 41.0279 124.646 41.298L124.029 40.568C124.343 40.2536 124.757 39.9946 125.271 39.7887C125.784 39.584 126.366 39.4804 127.015 39.4804C127.426 39.4804 127.81 39.5372 128.167 39.6506C128.524 39.764 128.837 39.9354 129.108 40.1623C129.378 40.3892 129.589 40.6765 129.741 41.0218C129.892 41.3683 129.968 41.774 129.968 42.2388V45.5656C129.968 45.8566 129.979 46.16 130 46.4732C130.022 46.7876 130.054 47.0527 130.098 47.2685H129.108C129.075 47.0848 129.048 46.885 129.027 46.668C129.005 46.4522 128.994 46.2414 128.994 46.0354H128.962C128.616 46.5435 128.224 46.9085 127.785 47.1304C127.347 47.3524 126.82 47.4633 126.204 47.4633C125.911 47.4633 125.611 47.4227 125.303 47.3413C124.995 47.2611 124.713 47.1279 124.459 46.9442C124.205 46.7605 123.994 46.5225 123.827 46.2303C123.659 45.938 123.575 45.5817 123.575 45.16C123.575 44.5755 123.724 44.1131 124.021 43.7728C124.319 43.4312 124.716 43.1772 125.214 43.0095C125.711 42.8418 126.282 42.7333 126.925 42.6852C127.569 42.6371 128.237 42.6124 128.929 42.6124V42.3683ZM128.605 43.4719C128.151 43.4719 127.694 43.4904 127.234 43.5286C126.774 43.5668 126.358 43.642 125.985 43.7555C125.611 43.8702 125.306 44.0342 125.068 44.2512C124.83 44.467 124.711 44.7543 124.711 45.1106C124.711 45.3807 124.762 45.6088 124.865 45.7925C124.968 45.9763 125.106 46.1255 125.279 46.2389C125.452 46.3523 125.644 46.4337 125.855 46.4818C126.066 46.5311 126.279 46.5546 126.496 46.5546C126.885 46.5546 127.231 46.4867 127.534 46.3523C127.837 46.2167 128.091 46.033 128.297 45.7999C128.502 45.5681 128.659 45.3005 128.767 44.9972C128.875 44.6939 128.929 44.3757 128.929 44.0403V43.4719H128.605Z" fill="#944B22"/>
<path d="M74.1373 57.6855H75.3055V62.6659H81.5684V57.6855H82.7366V69.1728H81.5684V63.7374H75.3055V69.1728H74.1373V57.6855Z" fill="#944B22"/>
<path d="M90.5085 64.2725C90.5085 63.6129 90.3354 63.1209 89.9893 62.7966C89.6431 62.471 89.1402 62.3095 88.4804 62.3095C88.0261 62.3095 87.6041 62.3909 87.2147 62.5524C86.8253 62.7152 86.4955 62.931 86.2251 63.2023L85.6085 62.471C85.9222 62.1578 86.3359 61.8977 86.8497 61.693C87.3636 61.487 87.945 61.3847 88.5939 61.3847C89.0049 61.3847 89.389 61.4414 89.7459 61.5549C90.1028 61.6683 90.4165 61.8385 90.6869 62.0653C90.9573 62.2935 91.1683 62.5796 91.3197 62.926C91.4712 63.2725 91.5469 63.677 91.5469 64.1431V67.4687C91.5469 67.7609 91.5577 68.0642 91.5793 68.3774C91.601 68.6906 91.6334 68.9558 91.6767 69.1728H90.6869C90.6545 68.989 90.6275 68.7881 90.6058 68.5723C90.5842 68.3552 90.5734 68.1444 90.5734 67.9397H90.5409C90.1948 68.4477 89.8027 68.8127 89.3646 69.0347C88.9265 69.2566 88.3992 69.3676 87.7827 69.3676C87.4906 69.3676 87.1904 69.3269 86.8822 69.2455C86.5739 69.1642 86.2926 69.0322 86.0385 68.8485C85.7842 68.6635 85.5734 68.4255 85.4057 68.1345C85.238 67.8423 85.1543 67.4847 85.1543 67.063C85.1543 66.4797 85.303 66.0161 85.6004 65.6758C85.8978 65.3355 86.2953 65.0815 86.7929 64.9138C87.2906 64.7461 87.8611 64.6375 88.5046 64.5895C89.1483 64.5401 89.8163 64.5155 90.5085 64.5155V64.2725ZM90.184 65.3762C89.7297 65.3762 89.2727 65.3946 88.8129 65.4329C88.3532 65.4699 87.9368 65.5463 87.5636 65.6598C87.1904 65.7732 86.8849 65.9384 86.6469 66.1542C86.4089 66.3712 86.2899 66.6573 86.2899 67.0149C86.2899 67.2849 86.3413 67.5118 86.4441 67.6956C86.5469 67.8805 86.6848 68.0285 86.8579 68.1419C87.0309 68.2554 87.2229 68.3368 87.4338 68.3861C87.6447 68.4342 87.8584 68.4588 88.0747 68.4588C88.4641 68.4588 88.8102 68.391 89.1132 68.2554C89.416 68.121 89.6701 67.936 89.8757 67.7042C90.0812 67.4711 90.2381 67.2036 90.3462 66.9015C90.4544 66.5981 90.5085 66.2788 90.5085 65.9434V65.3762H90.184Z" fill="#944B22"/>
<path d="M97.5015 69.1727H96.2846L93.1856 61.5794H94.4187L96.8849 68.0037H96.9174L99.3998 61.5794H100.584L97.5015 69.1727Z" fill="#944B22"/>
<path d="M103.44 56.9063H102.336V69.1724H103.44V56.9063Z" fill="#944B22"/>
<path d="M107.512 69.1728H106.409V61.5796H107.512V69.1728ZM107.366 60.0222H106.409L108.032 57.6855H109.508L107.366 60.0222Z" fill="#944B22"/>
<path d="M115.917 63.3157C115.733 63.0235 115.465 62.783 115.114 62.5931C114.762 62.4045 114.381 62.3095 113.97 62.3095C113.526 62.3095 113.126 62.3872 112.769 62.545C112.412 62.7016 112.107 62.9174 111.853 63.1936C111.598 63.4698 111.404 63.7941 111.268 64.1665C111.133 64.5402 111.066 64.9434 111.066 65.3762C111.066 65.809 111.133 66.2085 111.268 66.576C111.404 66.9446 111.596 67.2665 111.845 67.5415C112.093 67.8177 112.396 68.0347 112.753 68.1913C113.11 68.3479 113.51 68.4256 113.954 68.4256C114.441 68.4256 114.851 68.3343 115.187 68.1506C115.522 67.9669 115.798 67.7289 116.014 67.4366L116.842 68.0532C116.517 68.4527 116.12 68.7721 115.649 69.01C115.179 69.248 114.614 69.3676 113.954 69.3676C113.337 69.3676 112.78 69.2678 112.283 69.0668C111.785 68.867 111.36 68.5883 111.009 68.232C110.657 67.8744 110.384 67.4527 110.189 66.9656C109.995 66.4798 109.897 65.9496 109.897 65.3762C109.897 64.8028 109.995 64.2726 110.189 63.7855C110.384 63.2985 110.657 62.8767 111.009 62.5204C111.36 62.1628 111.785 61.8854 112.283 61.6844C112.78 61.4846 113.337 61.3847 113.954 61.3847C114.462 61.3847 114.979 61.4957 115.503 61.7177C116.028 61.9384 116.452 62.2664 116.777 62.6992L115.917 63.3157ZM114.57 60.0222H113.272L111.504 57.6855H112.575L113.921 59.4377L115.268 57.6855H116.339L114.57 60.0222Z" fill="#944B22"/>
<path d="M119.697 65.0027H119.746L123.251 61.5797H124.841L121.012 65.052L125.23 69.1729H123.608L119.746 65.1815H119.697V69.1729H118.594V56.9063H119.697V65.0027Z" fill="#944B22"/>
<path d="M134.089 65.3762C134.089 65.9495 133.989 66.4798 133.789 66.9656C133.589 67.4527 133.31 67.8743 132.953 68.2319C132.596 68.5883 132.169 68.867 131.671 69.0667C131.174 69.2677 130.628 69.3676 130.033 69.3676C129.449 69.3676 128.908 69.2677 128.41 69.0667C127.913 68.867 127.485 68.5883 127.128 68.2319C126.771 67.8743 126.493 67.4527 126.293 66.9656C126.093 66.4798 125.993 65.9495 125.993 65.3762C125.993 64.8028 126.093 64.2726 126.293 63.7855C126.493 63.2984 126.771 62.8767 127.128 62.5204C127.485 62.1628 127.913 61.8853 128.41 61.6843C128.908 61.4846 129.449 61.3847 130.033 61.3847C130.628 61.3847 131.174 61.4846 131.671 61.6843C132.169 61.8853 132.596 62.1628 132.953 62.5204C133.31 62.8767 133.589 63.2984 133.789 63.7855C133.989 64.2726 134.089 64.8028 134.089 65.3762ZM132.921 65.3762C132.921 64.9544 132.853 64.5562 132.718 64.1838C132.583 63.8102 132.391 63.4858 132.142 63.2096C131.893 62.9334 131.59 62.7152 131.233 62.5524C130.876 62.3909 130.476 62.3095 130.033 62.3095C129.589 62.3095 129.192 62.3909 128.84 62.5524C128.489 62.7152 128.188 62.9334 127.94 63.2096C127.691 63.4858 127.499 63.8102 127.364 64.1838C127.229 64.5562 127.161 64.9544 127.161 65.3762C127.161 65.7979 127.229 66.1949 127.364 66.5685C127.499 66.9421 127.691 67.2664 127.94 67.5414C128.188 67.8176 128.489 68.0347 128.84 68.1913C129.192 68.3479 129.589 68.4255 130.033 68.4255C130.476 68.4255 130.876 68.3479 131.233 68.1913C131.59 68.0347 131.893 67.8176 132.142 67.5414C132.391 67.2664 132.583 66.9421 132.718 66.5685C132.853 66.1949 132.921 65.7979 132.921 65.3762Z" fill="#944B22"/>
<path d="M139.573 69.1727H138.356L135.257 61.5794H136.49L138.957 68.0037H138.989L141.471 61.5794H142.656L139.573 69.1727Z" fill="#944B22"/>
<path d="M149.162 64.2726C149.162 63.6129 148.989 63.1209 148.643 62.7966C148.297 62.4711 147.794 62.3095 147.134 62.3095C146.68 62.3095 146.258 62.3909 145.868 62.5524C145.479 62.7152 145.149 62.931 144.879 63.2023L144.262 62.4711C144.576 62.1579 144.989 61.8977 145.503 61.693C146.017 61.4871 146.598 61.3847 147.247 61.3847C147.659 61.3847 148.043 61.4415 148.4 61.5549C148.756 61.6683 149.07 61.8385 149.34 62.0654C149.611 62.2935 149.822 62.5796 149.973 62.9261C150.125 63.2726 150.2 63.677 150.2 64.1431V67.4687C150.2 67.7609 150.211 68.0643 150.233 68.3775C150.255 68.6907 150.287 68.9558 150.33 69.1728H149.34C149.308 68.9891 149.281 68.7881 149.259 68.5723C149.238 68.3553 149.227 68.1444 149.227 67.9397H149.194C148.848 68.4478 148.456 68.8127 148.018 69.0347C147.58 69.2567 147.053 69.3676 146.436 69.3676C146.144 69.3676 145.844 69.3269 145.536 69.2456C145.227 69.1642 144.946 69.0322 144.692 68.8485C144.438 68.6635 144.227 68.4256 144.059 68.1346C143.892 67.8423 143.808 67.4847 143.808 67.063C143.808 66.4798 143.957 66.0161 144.254 65.6758C144.551 65.3355 144.949 65.0815 145.447 64.9138C145.944 64.7461 146.515 64.6376 147.158 64.5895C147.802 64.5402 148.47 64.5155 149.162 64.5155V64.2726ZM148.837 65.3762C148.383 65.3762 147.926 65.3947 147.467 65.4329C147.007 65.4699 146.59 65.5463 146.217 65.6598C145.844 65.7732 145.538 65.9385 145.3 66.1542C145.063 66.3713 144.944 66.6573 144.944 67.0149C144.944 67.285 144.995 67.5119 145.098 67.6956C145.2 67.8805 145.338 68.0285 145.511 68.142C145.685 68.2554 145.877 68.3368 146.087 68.3861C146.298 68.4342 146.512 68.4589 146.728 68.4589C147.118 68.4589 147.464 68.391 147.767 68.2554C148.07 68.121 148.324 67.936 148.529 67.7042C148.735 67.4712 148.892 67.2036 149 66.9015C149.108 66.5982 149.162 66.2788 149.162 65.9434V65.3762H148.837ZM147.361 60.0222H146.404L148.026 57.6855H149.503L147.361 60.0222Z" fill="#944B22"/>
</svg>
