<svg width="60" height="60" viewBox="0 0 60 60" fill="none" xmlns="http://www.w3.org/2000/svg">
<g clip-path="url(#clip0_15_344)">
<path d="M40.7025 26.7974C40.8771 26.9716 41.0157 27.1785 41.1102 27.4063C41.2047 27.6341 41.2534 27.8783 41.2534 28.1249C41.2534 28.3716 41.2047 28.6158 41.1102 28.8436C41.0157 29.0714 40.8771 29.2783 40.7025 29.4524L29.4525 40.7024C29.2783 40.877 29.0714 41.0156 28.8436 41.1101C28.6158 41.2046 28.3716 41.2533 28.125 41.2533C27.8784 41.2533 27.6342 41.2046 27.4064 41.1101C27.1786 41.0156 26.9717 40.877 26.7975 40.7024L21.1725 35.0774C20.9982 34.9031 20.8599 34.6961 20.7655 34.4684C20.6712 34.2406 20.6226 33.9965 20.6226 33.7499C20.6226 33.5034 20.6712 33.2593 20.7655 33.0315C20.8599 32.8037 20.9982 32.5968 21.1725 32.4224C21.5246 32.0704 22.0021 31.8726 22.5 31.8726C22.7465 31.8726 22.9907 31.9211 23.2184 32.0155C23.4462 32.1098 23.6532 32.2481 23.8275 32.4224L28.125 36.7237L38.0475 26.7974C38.2217 26.6228 38.4286 26.4843 38.6564 26.3898C38.8842 26.2952 39.1284 26.2466 39.375 26.2466C39.6216 26.2466 39.8658 26.2952 40.0936 26.3898C40.3214 26.4843 40.5283 26.6228 40.7025 26.7974Z" fill="#944B22"/>
<path d="M13.125 0C13.6223 0 14.0992 0.197544 14.4508 0.549175C14.8025 0.900806 15 1.37772 15 1.875V3.75H45V1.875C45 1.37772 45.1975 0.900806 45.5492 0.549175C45.9008 0.197544 46.3777 0 46.875 0C47.3723 0 47.8492 0.197544 48.2008 0.549175C48.5525 0.900806 48.75 1.37772 48.75 1.875V3.75H52.5C54.4891 3.75 56.3968 4.54018 57.8033 5.9467C59.2098 7.35322 60 9.26088 60 11.25V52.5C60 54.4891 59.2098 56.3968 57.8033 57.8033C56.3968 59.2098 54.4891 60 52.5 60H7.5C5.51088 60 3.60322 59.2098 2.1967 57.8033C0.790176 56.3968 0 54.4891 0 52.5V11.25C0 9.26088 0.790176 7.35322 2.1967 5.9467C3.60322 4.54018 5.51088 3.75 7.5 3.75H11.25V1.875C11.25 1.37772 11.4475 0.900806 11.7992 0.549175C12.1508 0.197544 12.6277 0 13.125 0V0ZM3.75 15V52.5C3.75 53.4946 4.14509 54.4484 4.84835 55.1516C5.55161 55.8549 6.50544 56.25 7.5 56.25H52.5C53.4946 56.25 54.4484 55.8549 55.1516 55.1516C55.8549 54.4484 56.25 53.4946 56.25 52.5V15H3.75Z" fill="#944B22"/>
</g>
<defs>
<clipPath id="clip0_15_344">
<rect width="60" height="60" fill="white"/>
</clipPath>
</defs>
</svg>
