<svg width="30" height="59" viewBox="0 0 30 59" fill="none" xmlns="http://www.w3.org/2000/svg">
<path d="M25.8701 38.88C27.6747 37.2345 28.8766 35.0635 29.3041 32.4477C30.9704 22.2563 21.8519 19.4953 15.8217 17.6746L14.3697 17.2275C7.56744 15.1187 7.04198 13.759 7.47065 11.1535C7.64707 10.0768 8.12921 9.28786 8.99289 8.66905C10.6914 7.45218 13.5954 7.07075 16.9706 7.6286C18.2082 7.83026 19.7777 8.28382 21.7712 9.01487C23.6818 9.70628 25.8021 8.73393 26.5005 6.8185C27.1987 4.90676 26.2162 2.78876 24.3052 2.08698C21.8404 1.18331 19.886 0.632721 18.1656 0.351549C12.8106 -0.54509 8.0134 0.290325 4.69465 2.67813C2.24246 4.4388 0.687376 6.95897 0.194289 9.96544C-0.597141 14.8191 1.13379 17.9765 3.62643 20.1314C1.82877 21.6756 0.622961 23.9457 0.194289 26.5615C-1.4508 36.633 7.76219 39.4908 12.1803 40.8621L13.6772 41.3192C21.134 43.5732 22.541 44.6714 22.0224 47.8403C21.8751 48.7262 21.4647 50.001 19.576 50.8549C17.8164 51.6507 15.3112 51.8235 12.5006 51.3698C10.5716 51.0638 8.20008 50.1599 6.10627 49.3636L4.98009 48.9351C3.07642 48.2257 0.952646 49.1943 0.237041 51.0957C-0.475569 53.004 0.488943 55.0252 2.39653 55.8422L3.487 56.2564C5.91268 57.1782 8.66563 58.2292 11.3252 58.6475C12.7322 58.8815 14.107 58.9969 15.4207 58.9969C18.0906 58.9969 20.5232 58.5178 22.6113 57.5749C26.293 55.9109 28.6646 52.8791 29.2972 49.0337C30.0877 44.2039 28.4398 41.058 25.8701 38.88ZM7.47065 27.7484C7.85127 25.4115 9.91592 24.5103 11.8599 24.1715C11.9666 24.2048 13.6818 24.7306 13.6818 24.7306C21.1386 26.9846 22.5456 28.0828 22.0236 31.2552C21.6444 33.583 19.5898 34.4898 17.6528 34.8321C17.0204 34.6309 14.3697 33.8233 14.3697 33.8233C7.56744 31.7125 7.04198 30.3527 7.47065 27.7484Z" fill="#944B22"/>
</svg>
