<svg width="39" height="59" viewBox="0 0 39 59" fill="none" xmlns="http://www.w3.org/2000/svg">
<path d="M31.8373 45.0889H6.69982C6.0943 45.0889 5.60644 45.5754 5.60644 46.1833C5.60644 46.7911 6.09194 47.2797 6.69982 47.2797H31.8373C32.4408 47.2797 32.9293 46.7911 32.9293 46.1833C32.9293 45.5754 32.4452 45.0889 31.8373 45.0889Z" fill="#944B22"/>
<path d="M31.8373 50.0796H19.2691C18.6632 50.0796 18.1737 50.5681 18.1737 51.176C18.1737 51.7795 18.6612 52.2704 19.2691 52.2704H31.8369C32.4448 52.2704 32.931 51.7839 32.931 51.176C32.931 50.5681 32.4452 50.0796 31.8373 50.0796Z" fill="#944B22"/>
<path d="M8.81846 35.5408C8.81846 38.9794 29.7146 38.9794 29.7146 35.5408C29.7146 32.634 26.366 28.7065 21.8435 27.5589C23.7339 26.2891 25.038 23.7784 25.038 21.5212C25.038 18.3341 22.4554 15.7485 19.267 15.7485C16.0779 15.7485 13.4984 18.3341 13.4984 21.5212C13.4984 23.7784 14.8002 26.2912 16.6878 27.5589C12.1721 28.7068 8.81846 32.634 8.81846 35.5408ZM18.8001 29.2341H18.7755L17.8207 28.1347C18.2856 28.3033 18.762 28.4037 19.267 28.4037C19.7711 28.4037 20.2485 28.3053 20.7134 28.1411L19.7546 29.2365H19.7323L22.2009 35.1939L19.267 38.1197L16.3365 35.1939L18.8001 29.2341Z" fill="#944B22"/>
<path d="M35.1241 2.84052C35.467 3.67328 35.6966 4.54582 35.6966 5.4396V7.75447C35.7708 8.06026 35.82 8.3765 35.82 8.70388V52.2011C35.82 54.4512 33.9907 56.2803 31.7425 56.2803H6.79422C4.54712 56.2803 2.71809 54.4512 2.71809 52.2011V8.70354C2.71809 6.45476 4.54712 4.62539 6.79422 4.62539H23.8388C23.9541 3.64193 24.241 2.71612 24.7299 1.90527H6.79422C3.04648 1.90527 0 4.95377 0 8.70354V52.2008C0 55.9515 3.04648 59 6.79422 59H31.7425C35.4893 59 38.5358 55.9515 38.5358 52.2008V8.70354C38.5381 6.19178 37.1541 4.01785 35.1241 2.84052Z" fill="#944B22"/>
<path d="M29.7186 15.5338C32.4367 15.5338 34.6457 13.0949 34.6457 10.0996V5.43652C34.6498 4.37922 34.3622 3.39981 33.8882 2.56536L32.7324 3.72111C32.9583 4.24066 33.0955 4.8165 33.0955 5.43652V10.0976C33.0955 12.2419 31.5784 13.9809 29.7183 13.9826C27.8566 13.9805 26.3455 12.2419 26.3455 10.0976V5.43652C26.3455 3.29495 27.8603 1.55426 29.7227 1.55223C30.2894 1.55426 30.8167 1.73294 31.2871 2.01615L32.4077 0.892095C31.634 0.334789 30.7122 0.00202289 29.7227 0C27.0005 0 24.7915 2.4386 24.7915 5.43618L24.7892 10.0993C24.7895 13.0949 27.0005 15.5318 29.7186 15.5338Z" fill="#944B22"/>
</svg>
