<svg width="48" height="59" viewBox="0 0 48 59" fill="none" xmlns="http://www.w3.org/2000/svg">
<path d="M36.0288 42.8521L36.0219 42.8715C35.3368 44.8247 34.4842 47.2556 32.1397 48.0169C31.7242 48.151 31.2901 48.2188 30.8535 48.2178C29.1526 48.2178 27.6988 47.2665 26.2985 46.3054L29.7924 58.0921C29.8619 58.3268 29.9979 58.5363 30.1838 58.6954C30.3698 58.8546 30.5978 58.9565 30.8404 58.989C31.083 59.0215 31.3298 58.9831 31.551 58.8785C31.7723 58.7739 31.9586 58.6075 32.0874 58.3994L34.5944 54.3521C34.73 54.1331 34.9292 53.9605 35.1653 53.8575C35.4014 53.7544 35.6633 53.7257 35.9162 53.7751L40.5885 54.6883C40.8287 54.7353 41.0773 54.7118 41.3045 54.6206C41.5316 54.5295 41.7275 54.3746 41.8686 54.1746C42.0097 53.9747 42.09 53.7381 42.0997 53.4936C42.1094 53.2491 42.0481 53.0069 41.9233 52.7964L36.0288 42.8521Z" fill="#944B22"/>
<path d="M17.0992 48.2175C16.6626 48.2185 16.2286 48.1508 15.813 48.0167C13.6505 47.3143 12.7602 45.1954 12.097 43.3374L6.49013 52.7962C6.36533 53.0068 6.3041 53.2489 6.3138 53.4934C6.32351 53.738 6.40375 53.9745 6.54484 54.1745C6.68594 54.3744 6.88186 54.5293 7.109 54.6205C7.33614 54.7116 7.58479 54.7351 7.82497 54.6881L12.4974 53.775C12.7502 53.7255 13.0121 53.7543 13.2483 53.8573C13.4844 53.9604 13.6835 54.1329 13.8192 54.352L16.3259 58.3992C16.4548 58.6073 16.641 58.7737 16.8623 58.8783C17.0835 58.9829 17.3303 59.0213 17.5728 58.9888C17.8154 58.9563 18.0434 58.8544 18.2293 58.6952C18.4152 58.5361 18.5512 58.3266 18.6207 58.0919L22.2317 45.9105C22.0923 46.005 21.9581 46.0968 21.8408 46.1776C20.3829 47.1809 18.8751 48.2175 17.0992 48.2175Z" fill="#944B22"/>
<path d="M47.9535 22.8906C47.9535 20.5395 43.3232 18.9492 42.6342 16.8277C41.9202 14.6291 44.7067 10.6254 43.3747 8.79534C42.0295 6.94693 37.352 8.36663 35.5037 7.02205C33.6735 5.68994 33.5864 0.796057 31.3877 0.0818699C29.2661 -0.607082 26.3277 3.27866 23.9765 3.27866C21.6253 3.27866 18.6873 -0.606984 16.5659 0.0819674C14.3672 0.795764 14.28 5.68994 12.4499 7.02195C10.6016 8.36702 5.92414 6.94703 4.57888 8.79524C3.24697 10.6252 6.03327 14.629 5.31938 16.8277C4.63052 18.9493 0 20.5399 0 22.8908C0 25.2418 4.63052 26.8323 5.31986 28.9537C6.03376 31.1523 3.24755 35.1559 4.57937 36.986C5.92453 38.8344 10.6019 37.4147 12.4503 38.7593C14.2803 40.0913 14.3675 44.9853 16.5663 45.6995C18.6879 46.3884 21.6262 42.5027 23.9776 42.5027C26.3289 42.5027 29.2669 46.3884 31.3885 45.6996C33.5869 44.9856 33.6742 40.0914 35.5043 38.7596C37.3527 37.4145 42.0301 38.8344 43.3754 36.9863C44.7074 35.1562 41.9211 31.1526 42.6349 28.9539C43.323 26.8325 47.9535 25.2422 47.9535 22.8906ZM23.9826 35.6754C21.4541 35.6754 18.9824 34.9256 16.88 33.5208C14.7776 32.1161 13.139 30.1194 12.1714 27.7834C11.2038 25.4474 10.9506 22.8768 11.4438 20.3969C11.9371 17.917 13.1547 15.639 14.9426 13.8511C16.7305 12.0631 19.0084 10.8455 21.4883 10.3522C23.9683 9.85886 26.5388 10.112 28.8748 11.0796C31.2109 12.0472 33.2076 13.6857 34.6124 15.7881C36.0172 17.8904 36.767 20.3621 36.7671 22.8906C36.7671 24.5695 36.4364 26.232 35.794 27.7831C35.1515 29.3342 34.2098 30.7436 33.0227 31.9308C31.8355 33.1179 30.4262 34.0596 28.8751 34.7021C27.324 35.3446 25.6615 35.6753 23.9826 35.6754V35.6754Z" fill="#944B22"/>
<path d="M29.5972 19.8108H27.1972C26.922 19.8108 26.6538 19.7237 26.4311 19.5619C26.2085 19.4002 26.0428 19.172 25.9577 18.9103L25.2161 16.6277C25.131 16.366 24.9653 16.1379 24.7426 15.9762C24.52 15.8144 24.2518 15.7273 23.9766 15.7273C23.7014 15.7273 23.4333 15.8144 23.2106 15.9762C22.988 16.1379 22.8222 16.366 22.7372 16.6277L21.9956 18.9103C21.9105 19.172 21.7448 19.4001 21.5222 19.5619C21.2995 19.7237 21.0314 19.8108 20.7561 19.8108H18.3562C18.0808 19.8107 17.8126 19.8977 17.5898 20.0595C17.367 20.2213 17.2012 20.4495 17.1161 20.7113C17.0311 20.9731 17.0311 21.2552 17.1163 21.517C17.2014 21.7788 17.3673 22.007 17.5901 22.1687L19.5318 23.5795C19.7544 23.7413 19.9201 23.9694 20.0051 24.2311C20.0902 24.4929 20.0902 24.7748 20.0051 25.0365L19.2635 27.319C19.1786 27.5807 19.1788 27.8626 19.2639 28.1242C19.349 28.3858 19.5147 28.6138 19.7373 28.7754C19.9599 28.9371 20.228 29.0242 20.5031 29.0242C20.7782 29.0242 21.0463 28.9372 21.2689 28.7755L23.2109 27.365C23.4335 27.2032 23.7017 27.116 23.9769 27.116C24.2521 27.116 24.5203 27.2032 24.7429 27.365L26.6843 28.7755C26.9069 28.9372 27.1751 29.0243 27.4503 29.0243C27.7255 29.0243 27.9936 28.9371 28.2162 28.7754C28.4389 28.6136 28.6046 28.3855 28.6896 28.1238C28.7747 27.8621 28.7747 27.5801 28.6897 27.3184L27.948 25.0359C27.863 24.7742 27.863 24.4922 27.9481 24.2305C28.0332 23.9688 28.1989 23.7407 28.4215 23.5789L30.3632 22.1681C30.5858 22.0063 30.7514 21.7782 30.8364 21.5165C30.9214 21.2548 30.9214 20.9729 30.8364 20.7112C30.7513 20.4495 30.5856 20.2215 30.363 20.0597C30.1404 19.898 29.8723 19.8108 29.5972 19.8108Z" fill="#944B22"/>
</svg>
