<svg width="53" height="61" viewBox="0 0 53 61" fill="none" xmlns="http://www.w3.org/2000/svg">
<path fill-rule="evenodd" clip-rule="evenodd" d="M26.2424 12.6562C21.5151 12.658 16.9157 14.1913 13.133 17.0265C9.35028 19.8616 6.58791 23.846 5.25963 28.3828C3.93134 32.9196 4.10864 37.7646 5.76498 42.1922C7.42131 46.6198 10.4675 50.3916 14.4473 52.9426C18.4271 55.4937 23.1263 56.6867 27.8411 56.343C32.5558 55.9993 37.0323 54.1374 40.6001 51.0361C44.1678 47.9348 46.6348 43.7611 47.6315 39.1401C48.6282 34.5191 48.1009 29.6996 46.1287 25.4034C45.9141 24.8811 45.9097 24.296 46.1167 23.7705C46.3236 23.2451 46.7258 22.82 47.2389 22.5844C47.7521 22.3487 48.3366 22.3206 48.87 22.5061C49.4034 22.6915 49.8444 23.0761 50.1007 23.5793C52.4673 28.735 53.0997 34.5186 51.9033 40.0639C50.7069 45.6093 47.7461 50.6177 43.4643 54.339C39.1826 58.0603 33.8104 60.2943 28.1525 60.7061C22.4945 61.118 16.8554 59.6857 12.0799 56.6237C7.30432 53.5617 3.64936 49.0348 1.66248 43.7213C-0.324397 38.4077 -0.53624 32.5934 1.05868 27.1493C2.65361 21.7052 5.96944 16.9244 10.5095 13.523C15.0496 10.1216 20.5695 8.2827 26.2424 8.28174V12.6562Z" fill="#944B22"/>
<path d="M26.2424 19.069V1.8686C26.2425 1.6608 26.3018 1.45732 26.4133 1.28199C26.5249 1.10666 26.6841 0.966737 26.8723 0.878609C27.0604 0.790481 27.2698 0.757794 27.4759 0.784375C27.682 0.810957 27.8763 0.895707 28.036 1.0287L38.3597 9.62891C38.8847 10.0664 38.8847 10.8713 38.3597 11.3087L28.036 19.9089C27.8763 20.0419 27.682 20.1267 27.4759 20.1532C27.2698 20.1798 27.0604 20.1471 26.8723 20.059C26.6841 19.9709 26.5249 19.831 26.4133 19.6556C26.3018 19.4803 26.2425 19.2768 26.2424 19.069V19.069Z" fill="#944B22"/>
</svg>
