<svg width="59" height="59" viewBox="0 0 59 59" fill="none" xmlns="http://www.w3.org/2000/svg">
<path d="M30.7718 0.401948C30.0085 -0.133983 28.9915 -0.133983 28.2283 0.401948L0.941186 19.566C0.151349 20.1207 -0.187853 21.1234 0.103052 22.0437C0.393926 22.964 1.24776 23.5895 2.2129 23.5895H5.89727V47.1917H4.42136C3.44373 47.1917 2.58199 47.8331 2.30156 48.7698L0.0931679 56.1457C-0.107397 56.8154 0.0204712 57.5406 0.438034 58.1018C0.855597 58.6626 1.5137 58.9931 2.21296 58.9931H56.7871C57.486 58.9931 58.1439 58.6629 58.5617 58.1024C58.9792 57.5418 59.1075 56.8169 58.9075 56.1472L56.7047 48.7713C56.4247 47.834 55.5627 47.1917 54.5843 47.1917H53.1021V23.5895H56.7871C57.7521 23.5895 58.6059 22.964 58.8968 22.0437C59.1877 21.1234 58.8488 20.1207 58.0589 19.566L30.7718 0.401948ZM13.2586 47.1917H10.3228V23.5895H13.2586V47.1917ZM6.06865 51.6172H52.936L53.8169 54.5676H5.18529L6.06865 51.6172ZM17.6841 47.1917V23.5895H23.6066V47.1917H17.6841ZM30.968 47.1917H28.0321V23.5895H30.968V47.1917ZM41.3151 47.1917H35.3935V23.5895H41.3151V47.1917ZM48.6765 47.1917H45.7407V23.5895H48.6765V47.1917ZM49.7862 19.164L9.21384 19.1639L29.4999 4.91672L49.7862 19.164Z" fill="#944B22"/>
</svg>
